<svg width="24" height="24" viewBox="0 0 24 24" fill="none" xmlns="http://www.w3.org/2000/svg">
<g clip-path="url(#clip0_10_44)">
<path d="M0.379993 10.377L0.107993 10.34C0.0599929 10.684 0.0259929 11.035 0.00699292 11.381L0.281993 11.397C0.299993 11.057 0.332993 10.715 0.379993 10.377ZM4.13599 3.289L3.95199 3.084C3.69399 3.316 3.44299 3.564 3.20599 3.818L3.40799 4.006C3.63899 3.758 3.88399 3.516 4.13599 3.289V3.289ZM5.76899 2.059L5.62299 1.824C5.32699 2.01 5.03699 2.209 4.75999 2.418L4.92599 2.637C5.19599 2.434 5.47999 2.238 5.76899 2.059ZM1.82399 18.369C2.00899 18.666 2.20799 18.955 2.41699 19.232L2.63699 19.068C2.4314 18.7953 2.23788 18.5137 2.05699 18.224L1.82399 18.369V18.369ZM1.12699 16.402L0.871993 16.506C1.00099 16.824 1.14599 17.141 1.30299 17.449L1.30799 17.459L1.55299 17.334L1.54799 17.324C1.39466 17.0228 1.2542 16.7152 1.12699 16.402V16.402ZM0.297993 9.309L0.566993 9.372C0.642993 9.04 0.734993 8.708 0.838993 8.386L0.577993 8.299C0.469993 8.631 0.375993 8.971 0.297993 9.309V9.309ZM0.273993 12.42L-0.00100708 12.43C0.0109929 12.778 0.0389929 13.129 0.0819929 13.473L0.354993 13.44C0.312993 13.104 0.285993 12.76 0.273993 12.42ZM0.255993 14.506C0.328993 14.846 0.417993 15.188 0.519993 15.52L0.782993 15.44C0.682993 15.114 0.595993 14.782 0.524993 14.45L0.255993 14.506V14.506ZM11.573 0.275L11.563 0C11.215 0.012 10.864 0.039 10.519 0.082L10.553 0.355C10.891 0.314 11.233 0.287 11.573 0.275ZM23.221 8.566C23.321 8.892 23.407 9.226 23.477 9.558L23.747 9.499C23.675 9.159 23.587 8.817 23.485 8.485L23.221 8.566ZM17.621 1.389C17.3121 1.22544 16.9961 1.07563 16.674 0.94L16.567 1.192C16.881 1.325 17.192 1.473 17.493 1.631L17.621 1.389ZM15.693 0.572C15.361 0.467 15.023 0.373 14.683 0.295L14.62 0.563C14.952 0.639 15.284 0.731 15.608 0.836L15.693 0.572ZM6.67399 1.545C6.97199 1.395 7.27999 1.254 7.58999 1.127L7.48599 0.873C7.16899 1 6.85399 1.145 6.54899 1.301L6.53399 1.309L6.65899 1.553L6.67399 1.545ZM23.727 11.588L24.002 11.578C23.9902 11.2286 23.9628 10.8799 23.92 10.533L23.647 10.566C23.688 10.904 23.715 11.248 23.727 11.588V11.588ZM13.654 0.105C13.308 0.058 12.958 0.025 12.611 0.007L12.597 0.28C12.936 0.298 13.28 0.331 13.616 0.378L13.654 0.105V0.105ZM9.54399 0.527L9.48599 0.257C9.14599 0.329 8.80499 0.417 8.47199 0.521L8.55299 0.783C8.87799 0.684 9.21199 0.598 9.54399 0.527ZM1.92099 5.469L2.15199 5.619C2.33699 5.334 2.53599 5.053 2.74399 4.785L2.52699 4.615C2.31399 4.891 2.10999 5.178 1.92099 5.469V5.469ZM0.942993 7.318L1.19599 7.425C1.32799 7.112 1.47599 6.8 1.63499 6.501L1.39199 6.373C1.22899 6.68 1.07799 6.998 0.942993 7.318V7.318ZM18.223 21.943L18.368 22.177C18.663 21.991 18.954 21.792 19.231 21.583L19.067 21.364C18.795 21.568 18.51 21.764 18.223 21.943V21.943ZM21.248 19.219L21.465 19.389C21.68 19.116 21.883 18.828 22.072 18.535L21.842 18.387C21.656 18.672 21.457 18.951 21.248 19.219V19.219ZM19.855 20.715L20.039 20.918C20.297 20.688 20.549 20.439 20.785 20.186L20.584 19.998C20.354 20.246 20.107 20.486 19.855 20.715ZM22.359 17.504L22.603 17.633C22.765 17.326 22.917 17.008 23.052 16.688L22.798 16.581C22.6657 16.8951 22.5192 17.2031 22.359 17.504V17.504ZM23.617 13.629L23.89 13.668C23.939 13.322 23.972 12.973 23.992 12.625L23.717 12.611C23.6991 12.9517 23.6658 13.2914 23.617 13.629V13.629ZM23.156 15.621L23.42 15.707C23.527 15.375 23.621 15.037 23.699 14.697L23.431 14.634C23.354 14.967 23.262 15.299 23.156 15.621ZM22.453 6.672C22.607 6.975 22.75 7.289 22.877 7.604L23.133 7.5C23.0016 7.17615 22.8561 6.85818 22.697 6.547L22.453 6.672ZM8.29599 23.418C8.62699 23.525 8.96599 23.619 9.30499 23.697L9.36699 23.429C9.03447 23.3525 8.70549 23.2615 8.38099 23.156L8.29599 23.418V23.418ZM10.335 23.889C10.68 23.938 11.031 23.971 11.378 23.991L11.392 23.716C11.0511 23.6978 10.7111 23.6651 10.373 23.618L10.335 23.889V23.889ZM17.326 22.449C17.023 22.603 16.713 22.746 16.4 22.873L16.504 23.129C16.822 22.998 17.143 22.854 17.451 22.695L17.455 22.693L17.332 22.447L17.326 22.449ZM4.61299 21.467C4.88699 21.68 5.17499 21.885 5.46699 22.072L5.61599 21.842C5.33017 21.6564 5.05226 21.4589 4.78299 21.25L4.61299 21.467ZM12.417 23.725L12.426 24C12.7753 23.9865 13.124 23.9585 13.471 23.916L13.436 23.645C13.1 23.686 12.756 23.713 12.417 23.725V23.725ZM6.36999 22.604C6.67699 22.766 6.99499 22.918 7.31599 23.053L7.42299 22.799C7.10871 22.6663 6.80041 22.5198 6.49899 22.36L6.36999 22.604V22.604ZM3.08299 20.041C3.31599 20.299 3.56299 20.551 3.81699 20.787L4.00499 20.586C3.75599 20.356 3.51499 20.109 3.28799 19.857L3.08299 20.041V20.041ZM14.445 23.475L14.504 23.745C14.8457 23.6711 15.184 23.5824 15.518 23.479L15.436 23.217C15.111 23.316 14.777 23.402 14.445 23.475V23.475ZM21.18 0.129C20.4668 0.129 19.7829 0.412305 19.2786 0.91659C18.7743 1.42088 18.491 2.10483 18.491 2.818C18.491 3.53117 18.7743 4.21512 19.2786 4.71941C19.7829 5.2237 20.4668 5.507 21.18 5.507C21.8932 5.507 22.5771 5.2237 23.0814 4.71941C23.5857 4.21512 23.869 3.53117 23.869 2.818C23.869 2.10483 23.5857 1.42088 23.0814 0.91659C22.5771 0.412305 21.8932 0.129 21.18 0.129V0.129ZM15.324 15.447C15.324 15.918 15.638 16.107 16.176 16.107C16.846 16.107 17.473 15.711 17.473 15.091V14.446C17.243 14.553 17.094 14.587 16.366 14.686C15.631 14.795 15.324 14.992 15.324 15.447ZM12 2.818C9.56531 2.818 7.23034 3.78518 5.50875 5.50676C3.78717 7.22834 2.81999 9.56331 2.81999 11.998C2.81999 13.8136 3.35839 15.5885 4.3671 17.0981C5.37581 18.6078 6.80953 19.7844 8.48696 20.4792C10.1644 21.174 12.0102 21.3558 13.7909 21.0016C15.5717 20.6474 17.2074 19.7731 18.4912 18.4892C19.7751 17.2054 20.6494 15.5697 21.0036 13.7889C21.3578 12.0082 21.176 10.1624 20.4812 8.48497C19.7864 6.80754 18.6098 5.37382 17.1001 4.36511C15.5905 3.3564 13.8156 2.818 12 2.818V2.818ZM9.51299 16.588H5.77099V10.565H6.53999V15.911H9.51399V16.588H9.51299ZM13.643 16.588H13.024V15.918C12.619 16.488 12.213 16.711 11.578 16.711C10.735 16.711 10.198 16.248 10.198 15.529V12.258H10.884V15.258C10.884 15.778 11.231 16.108 11.777 16.108C12.496 16.108 12.958 15.53 12.958 14.647V12.258H13.644V16.588H13.643ZM13.113 8.195C13.0974 7.83232 13.1554 7.47023 13.2835 7.13056C13.4115 6.79088 13.607 6.48064 13.8582 6.21852C14.1093 5.9564 14.4109 5.74783 14.7448 5.60536C15.0787 5.4629 15.438 5.38949 15.801 5.38955C16.164 5.38962 16.5233 5.46317 16.8571 5.60575C17.191 5.74834 17.4925 5.95703 17.7435 6.21924C17.9946 6.48146 18.19 6.79177 18.3179 7.13149C18.4459 7.47122 18.5037 7.83332 18.488 8.196C18.458 8.88871 18.1616 9.54308 17.6608 10.0226C17.16 10.5021 16.4934 10.7697 15.8 10.7696C15.1067 10.7694 14.4401 10.5016 13.9395 10.0219C13.4388 9.5422 13.1427 8.88772 13.113 8.195V8.195ZM18.68 16.051V16.571C18.457 16.63 18.35 16.645 18.209 16.645C18.0434 16.6447 17.8828 16.5881 17.7536 16.4846C17.6244 16.381 17.5343 16.2366 17.498 16.075C17.3091 16.2757 17.0811 16.4357 16.8282 16.5453C16.5753 16.6548 16.3026 16.7115 16.027 16.712C15.15 16.712 14.605 16.249 14.605 15.464C14.605 14.937 14.861 14.548 15.365 14.341C15.631 14.234 15.779 14.2 16.754 14.077C17.299 14.011 17.473 13.886 17.473 13.597V13.415C17.473 13.003 17.125 12.77 16.506 12.77C15.861 12.77 15.549 13.01 15.49 13.54H14.797C14.838 12.54 15.483 12.136 16.531 12.136C17.597 12.136 18.158 12.548 18.158 13.318V15.73C18.158 15.945 18.291 16.068 18.531 16.068C18.572 16.066 18.605 16.066 18.68 16.051V16.051Z" fill="#FCBF49"/>
</g>
<defs>
<clipPath id="clip0_10_44">
<rect width="24" height="24" fill="white"/>
</clipPath>
</defs>
</svg>
