<svg width="24" height="24" viewBox="0 0 24 24" fill="none" xmlns="http://www.w3.org/2000/svg">
<g clip-path="url(#clip0_10_82)">
<path d="M21.807 18.285L13.553 0.756037C13.4504 0.540151 13.2913 0.356066 13.0925 0.223316C12.8937 0.0905653 12.6627 0.0141013 12.424 0.00203718C12.185 -0.013871 11.9461 0.0360779 11.7335 0.14645C11.5209 0.256823 11.3426 0.423392 11.218 0.628037L2.266 15.128C2.13013 15.347 2.05947 15.6002 2.06231 15.8579C2.06514 16.1156 2.14135 16.3671 2.282 16.583L6.658 23.361C6.82364 23.6152 7.06691 23.809 7.3516 23.9137C7.6363 24.0184 7.94719 24.0283 8.238 23.942L20.941 20.185C21.33 20.07 21.648 19.795 21.814 19.43C21.98 19.065 21.978 18.647 21.807 18.285ZM19.959 19.037L9.18 22.224C9.10531 22.2468 9.02601 22.2498 8.94982 22.2327C8.87364 22.2157 8.80316 22.1792 8.74526 22.1269C8.68736 22.0745 8.644 22.008 8.61942 21.9339C8.59484 21.8598 8.58987 21.7806 8.605 21.704L12.455 3.26604C12.527 2.92104 13.004 2.86604 13.154 3.18604L20.283 18.324C20.3145 18.3915 20.331 18.4651 20.3313 18.5396C20.3317 18.614 20.3159 18.6877 20.285 18.7555C20.2541 18.8233 20.2088 18.8836 20.1524 18.9322C20.0959 18.9808 20.0296 19.0165 19.958 19.037H19.959Z" fill="#FCBF49"/>
</g>
<defs>
<clipPath id="clip0_10_82">
<rect width="24" height="24" fill="white"/>
</clipPath>
</defs>
</svg>
