<svg width="24" height="24" viewBox="0 0 24 24" fill="none" xmlns="http://www.w3.org/2000/svg">
<path d="M6.357 9C3.72 9.68 2 10.845 2 12.175C2 14.282 6.405 16 11.85 16C12.59 16 13.11 15.961 13.8 15.903" stroke="#FCBF49" stroke-width="2" stroke-linecap="round" stroke-linejoin="round"/>
<path d="M9.837 15.9C9.424 15.304 9.031 14.767 8.657 14.1C5.906 9.19998 5.169 4.32998 7.027 3.22698C8.177 2.52998 10.074 3.47998 12.001 5.48098" stroke="#FCBF49" stroke-width="2" stroke-linecap="round" stroke-linejoin="round"/>
<path d="M6.429 15.387C5.727 18.075 5.869 20.103 6.989 20.782C8.772 21.862 12.376 18.824 15.032 13.978C15.392 13.308 15.715 12.649 16 12" stroke="#FCBF49" stroke-width="2" stroke-linecap="round" stroke-linejoin="round"/>
<path d="M12 18.52C13.928 20.52 15.817 21.47 16.978 20.773C18.828 19.671 18.099 14.801 15.345 9.89997C14.961 9.22297 14.568 8.69598 14.165 8.09998" stroke="#FCBF49" stroke-width="2" stroke-linecap="round" stroke-linejoin="round"/>
<path d="M17.66 15C20.272 14.313 22 13.15 22 11.824C22 9.714 17.592 8 12.155 8C11.408 8 10.889 8.029 10.2 8.087" stroke="#FCBF49" stroke-width="2" stroke-linecap="round" stroke-linejoin="round"/>
<path d="M8 12C8.285 11.34 8.607 10.692 8.968 10.022C11.615 5.178 15.221 2.132 17.014 3.221C18.124 3.9 18.276 5.927 17.574 8.614M12.26 12.015H12.25C12.24 12.145 12.13 12.255 11.99 12.255C11.923 12.2517 11.8599 12.2229 11.8134 12.1746C11.7669 12.1263 11.7407 12.062 11.74 11.995C11.74 11.855 11.85 11.745 11.98 11.745H11.97C12.1 11.735 12.22 11.855 12.22 11.985" stroke="#FCBF49" stroke-width="2" stroke-linecap="round" stroke-linejoin="round"/>
</svg>
