<svg width="24" height="24" viewBox="0 0 24 24" fill="none" xmlns="http://www.w3.org/2000/svg">
<path d="M3.25 4.19995C2.98478 4.19995 2.73043 4.30531 2.54289 4.49284C2.35536 4.68038 2.25 4.93473 2.25 5.19995V18.8C2.25 19.0652 2.35536 19.3195 2.54289 19.5071C2.73043 19.6946 2.98478 19.8 3.25 19.8H20.75C21.0152 19.8 21.2696 19.6946 21.4571 19.5071C21.6446 19.3195 21.75 19.0652 21.75 18.8V5.19995C21.75 4.93473 21.6446 4.68038 21.4571 4.49284C21.2696 4.30531 21.0152 4.19995 20.75 4.19995H3.25ZM4.5 11.58L8.36 14.58L4.5 17.565V11.565V11.58ZM9.23 15.91H14.73V17.565H9.23V15.91Z" stroke="#FCBF49" stroke-width="0.5" stroke-linecap="round" stroke-linejoin="round"/>
</svg>
