<svg width="24" height="24" viewBox="0 0 24 24" fill="none" xmlns="http://www.w3.org/2000/svg">
<g clip-path="url(#clip0_10_84)">
<path d="M24 12C24 18.62 18.62 24 12 24C5.38 24 0 18.62 0 12C0 5.38 5.38 0 12 0C18.62 0 24 5.38 24 12ZM1.21 12C1.20868 13.4173 1.48688 14.821 2.02866 16.1307C2.57044 17.4404 3.36518 18.6304 4.36738 19.6326C5.36959 20.6348 6.55959 21.4296 7.86929 21.9713C9.17899 22.5131 10.5827 22.7913 12 22.79C13.4173 22.7913 14.821 22.5131 16.1307 21.9713C17.4404 21.4296 18.6304 20.6348 19.6326 19.6326C20.6348 18.6304 21.4296 17.4404 21.9713 16.1307C22.5131 14.821 22.7913 13.4173 22.79 12C22.7913 10.5827 22.5131 9.17899 21.9713 7.86929C21.4296 6.55959 20.6348 5.36959 19.6326 4.36738C18.6304 3.36518 17.4404 2.57044 16.1307 2.02866C14.821 1.48688 13.4173 1.20868 12 1.21C10.5827 1.20868 9.17899 1.48688 7.86929 2.02866C6.55959 2.57044 5.36959 3.36518 4.36738 4.36738C3.36518 5.36959 2.57044 6.55959 2.02866 7.86929C1.48688 9.17899 1.20868 10.5827 1.21 12ZM12.125 5.914L14.287 7.162C14.3251 7.18398 14.3567 7.21562 14.3786 7.25372C14.4006 7.29182 14.4121 7.33503 14.412 7.379V8.482L16.885 9.91C16.9231 9.93198 16.9547 9.96362 16.9766 10.0017C16.9986 10.0398 17.0101 10.083 17.01 10.127V12.482L17.965 13.033C18.0031 13.055 18.0347 13.0866 18.0566 13.1247C18.0786 13.1628 18.0901 13.206 18.09 13.25V15.746C18.0901 15.79 18.0786 15.8332 18.0566 15.8713C18.0347 15.9094 18.0031 15.941 17.965 15.963L15.803 17.211C15.765 17.2329 15.7219 17.2445 15.678 17.2445C15.6341 17.2445 15.591 17.2329 15.553 17.211L14.597 16.659L12.125 18.086C12.087 18.1079 12.0439 18.1195 12 18.1195C11.9561 18.1195 11.913 18.1079 11.875 18.086L9.403 16.659L8.447 17.211C8.40899 17.2329 8.36588 17.2445 8.322 17.2445C8.27812 17.2445 8.235 17.2329 8.197 17.211L6.035 15.963C5.99692 15.941 5.96532 15.9094 5.94337 15.8713C5.92142 15.8332 5.90991 15.79 5.91 15.746V13.25C5.90991 13.206 5.92142 13.1628 5.94337 13.1247C5.96532 13.0866 5.99692 13.055 6.035 13.033L6.99 12.482V10.127C6.98991 10.083 7.00142 10.0398 7.02337 10.0017C7.04532 9.96362 7.07692 9.93198 7.115 9.91L9.588 8.482V7.38C9.58791 7.33603 9.59942 7.29282 9.62137 7.25472C9.64332 7.21662 9.67492 7.18498 9.713 7.163L11.875 5.915C11.913 5.89306 11.9561 5.88151 12 5.88151C12.0439 5.88151 12.087 5.89306 12.125 5.915V5.914ZM13.393 15.963C13.3549 15.941 13.3233 15.9094 13.3014 15.8713C13.2794 15.8332 13.2679 15.79 13.268 15.746V13.25C13.2679 13.206 13.2794 13.1628 13.3014 13.1247C13.3233 13.0866 13.3549 13.055 13.393 13.033L15.553 11.785C15.591 11.7631 15.6341 11.7515 15.678 11.7515C15.7219 11.7515 15.765 11.7631 15.803 11.785L16.51 12.193V10.271L14.412 9.061V9.875C14.4121 9.91897 14.4006 9.96218 14.3786 10.0003C14.3567 10.0384 14.3251 10.07 14.287 10.092L12.125 11.34C12.087 11.3619 12.0439 11.3735 12 11.3735C11.9561 11.3735 11.913 11.3619 11.875 11.34L9.713 10.092C9.67492 10.07 9.64332 10.0384 9.62137 10.0003C9.59942 9.96218 9.58791 9.91897 9.588 9.875V9.06L7.49 10.271V12.193L8.197 11.785C8.235 11.7631 8.27812 11.7515 8.322 11.7515C8.36588 11.7515 8.40899 11.7631 8.447 11.785L10.607 13.033C10.6451 13.055 10.6767 13.0866 10.6986 13.1247C10.7206 13.1628 10.7321 13.206 10.732 13.25V15.746C10.7321 15.79 10.7206 15.8332 10.6986 15.8713C10.6767 15.9094 10.6451 15.941 10.607 15.963L9.902 16.371L12 17.582L14.098 16.371L13.393 15.963ZM10.088 9.73L11.75 10.69V8.766L10.088 7.811V9.73ZM13.912 9.73V7.811L12.25 8.766V10.69L13.912 9.73ZM12 6.418L10.34 7.378L12 8.332L13.66 7.378L12 6.418ZM6.41 15.602L8.07 16.56V14.639L6.41 13.683V15.602ZM10.232 15.602V13.682L8.57 14.639V16.562L10.232 15.602ZM8.322 12.291L6.66 13.251L8.321 14.206L9.981 13.25L8.322 12.291ZM13.768 15.601L15.428 16.561V14.639L13.768 13.683V15.601ZM17.59 15.601V13.683L15.928 14.639V16.561L17.59 15.601ZM15.678 12.291L14.018 13.251L15.678 14.206L17.338 13.25L15.678 12.291Z" fill="#FCBF49"/>
</g>
<defs>
<clipPath id="clip0_10_84">
<rect width="24" height="24" fill="white"/>
</clipPath>
</defs>
</svg>
