<svg width="24" height="24" viewBox="0 0 24 24" fill="none" xmlns="http://www.w3.org/2000/svg">
<g clip-path="url(#clip0_10_42)">
<path d="M24 11.9843H23.973L19.6568 7.668L23.9573 3.25425V1.461L23.3085 0.81225H15.1095L14.4495 1.4175V2.4645L12.0158 0.027V0L12 0.01575L11.9843 0V0.027L10.695 1.31625L10.1558 0.777H2.03476L1.39801 1.47225V3.35475L2.01151 3.972H2.73451V9.2805L0.0277629 11.9872H0.000762939L0.0165129 11.9992L0.000762939 12.015H0.0277629L2.73451 14.718V21.1868L3.64051 21.7103H5.96101L7.82026 19.8038L11.9843 23.9715V23.9985L12 23.9827L12.0158 23.9985V23.9715L14.5238 21.4635H15.0083C15.0635 21.4634 15.1173 21.446 15.1621 21.4137C15.2069 21.3814 15.2404 21.3359 15.258 21.2835L15.4065 20.8575C15.4199 20.8169 15.4233 20.7738 15.4165 20.7316C15.4097 20.6895 15.3929 20.6496 15.3675 20.6152L16.8285 19.1542L16.2188 21.1155C16.2082 21.1488 16.2044 21.1839 16.2076 21.2187C16.2107 21.2536 16.2207 21.2874 16.2371 21.3183C16.2534 21.3492 16.2757 21.3766 16.3027 21.3988C16.3297 21.421 16.3608 21.4377 16.3943 21.4478C16.4188 21.4587 16.4454 21.4641 16.4723 21.4635H18.2963C18.348 21.4619 18.3983 21.4455 18.4412 21.4165C18.4841 21.3874 18.5178 21.3467 18.5385 21.2993L18.7028 20.9047C18.7164 20.8725 18.7231 20.8377 18.7225 20.8027C18.7219 20.7677 18.7139 20.7332 18.699 20.7015C18.6869 20.6687 18.6676 20.639 18.6426 20.6146C18.6175 20.5902 18.5874 20.5717 18.5543 20.5605C18.5231 20.5479 18.4902 20.5401 18.4568 20.5372H18.3825L19.2225 17.8965H20.4533L19.4378 21.1155C19.4262 21.1555 19.424 21.1977 19.4314 21.2386C19.4389 21.2796 19.4557 21.3183 19.4807 21.3517C19.5056 21.385 19.5379 21.4122 19.5751 21.4309C19.6123 21.4497 19.6534 21.4595 19.695 21.4598H21.6953C21.7488 21.4595 21.8011 21.4434 21.8456 21.4135C21.89 21.3836 21.9246 21.3413 21.945 21.2917L22.1093 20.862C22.1235 20.8219 22.128 20.7789 22.1222 20.7367C22.1164 20.6944 22.1006 20.6542 22.0761 20.6194C22.0515 20.5846 22.019 20.5561 21.9812 20.5365C21.9433 20.5168 21.9014 20.5066 21.8588 20.5065H21.714L22.8428 16.8307C22.856 16.7908 22.8594 16.7482 22.8526 16.7067C22.8458 16.6652 22.8291 16.6259 22.8038 16.5922L22.4288 16.0883V16.0845C22.4041 16.0519 22.3723 16.0254 22.3357 16.007C22.2992 15.9887 22.2589 15.979 22.218 15.9788H20.7803C20.7451 15.979 20.7104 15.9864 20.6782 16.0005C20.646 16.0145 20.6169 16.035 20.5928 16.0605L20.1908 16.5023H19.5698L19.527 16.455L23.9723 12.0098H23.9993L23.9835 11.9977L24 11.9843ZM9.84001 21.141L11.418 16.629H10.914L11.2148 16.3245H12.8708L11.3085 20.883H11.9333L11.8515 21.141H9.84001ZM13.5315 13.6207L13.6838 13.773L13.4145 14.6948L13.188 14.9213H12.219L12.039 14.7413L12.3518 13.8705L12.6368 13.6207H13.5315ZM5.58976 20.8282H3.87901L3.61351 20.6797V3.09H2.37901L2.27776 2.9925V1.8165L2.42251 1.6605H9.79351L10.008 1.875V2.98425L9.86326 3.156H8.78476V11.8433L17.5935 3.156H15.5078L15.3323 2.9685V1.8045L15.453 1.695H22.941L23.0738 1.82775V2.898L12.9803 13.2495H12.5625L12.543 13.2532C12.5003 13.2641 12.4604 13.2841 12.426 13.3118L12.0825 13.6088L12.0788 13.6125C12.0463 13.6431 12.021 13.6805 12.0045 13.722L11.7113 14.5538L5.58976 20.8282ZM20.3595 16.8787L20.832 16.359H22.164L22.4768 16.773L21.2108 20.8785H21.7028L21.621 21.0892H19.8398L20.9648 17.523H18.9488L17.8703 20.9138H18.2963L18.222 21.0892H16.6163L17.7255 17.5425H15.6278L14.565 20.8823H15.0023L14.928 21.0892H13.2675L14.7833 16.6282H14.1975L14.2875 16.359H15.936L16.4558 16.8945H17.3618L17.8538 16.344H18.912L19.404 16.8795L20.3595 16.8787Z" fill="#FCBF49"/>
</g>
<defs>
<clipPath id="clip0_10_42">
<rect width="24" height="24" fill="white"/>
</clipPath>
</defs>
</svg>
